<?xml version="1.0" encoding="utf-8"?>
<!-- Generator: Adobe Illustrator 22.1.0, SVG Export Plug-In . SVG Version: 6.00 Build 0)  -->
<svg version="1.1" id="Layer_1" xmlns="http://www.w3.org/2000/svg" xmlns:xlink="http://www.w3.org/1999/xlink" x="0px" y="0px"
	 viewBox="0 0 510 156" style="enable-background:new 0 0 510 156;" xml:space="preserve">
<style type="text/css">
	.st0{fill:#009DA2;}
	.st1{fill:#FD2900;}
	.st2{fill:#2E3192;}
	.st3{fill:#FFFFFF;}
	.st4{fill:#FF6B3C;}
	.st5{fill:#0071EA;}
	.st6{fill:#000A4A;}
</style>
<polygon class="st0" points="66.9,0.2 133.6,67 133.6,0.2 "/>
<polygon class="st1" points="0,0.2 0,133.7 66.7,67 "/>
<polygon class="st2" points="100.2,100.4 133.6,133.7 133.6,67 "/>
<polygon class="st3" points="0.1,0.2 33.5,33.6 100.2,33.6 66.9,0.2 "/>
<polygon class="st4" points="100.2,33.6 66.9,67 33.5,33.6 "/>
<rect x="76.6" y="43.4" transform="matrix(0.7071 -0.7071 0.7071 0.7071 -18.0145 90.4975)" class="st3" width="47.2" height="47.2"/>
<polygon class="st5" points="0.1,133.7 133.6,133.7 66.9,67 "/>
<polygon class="st6" points="185.2,61.9 185.2,13.3 166.8,13.3 166.8,0.1 220.1,0.1 220.1,13.3 201.7,13.3 201.7,61.9 "/>
<g>
	<path class="st6" d="M265.9,21.3c2.6,3.2,3.9,7.9,3.9,14.3v26.3h-15.7V36.3c0-2.7-0.5-4.7-1.4-5.9c-0.9-1.2-2.4-1.8-4.3-1.8
		c-2.4,0-4.3,0.8-5.7,2.4c-1.4,1.6-2.2,3.7-2.2,6.3v24.5h-15.7V0.4h15.7v22.8c3.4-4.4,8-6.6,13.8-6.6
		C259.5,16.6,263.4,18.2,265.9,21.3"/>
	<path class="st6" d="M317.5,41.4h-27.7c0.3,3.4,1.3,5.9,2.9,7.4c1.7,1.5,4.1,2.3,7.4,2.3c2.2,0,4.4-0.4,6.6-1.1
		c2.2-0.7,4.2-1.7,6-3l4,10.4c-2.2,1.6-4.9,2.9-8,3.8c-3.1,0.9-6.2,1.4-9.4,1.4c-5,0-9.4-0.9-13.1-2.8c-3.7-1.8-6.5-4.5-8.5-7.9
		c-2-3.4-3-7.5-3-12.2c0-4.5,0.9-8.4,2.8-11.9c1.9-3.5,4.5-6.2,7.8-8.2c3.3-2,7.1-2.9,11.4-2.9c4.2,0,7.8,0.9,10.9,2.8
		c3.1,1.9,5.5,4.5,7.2,7.9c1.7,3.4,2.5,7.4,2.5,12V41.4z M290.1,34.1h14.1c-0.6-4.5-2.8-6.8-6.8-6.8C293.5,27.3,291,29.6,290.1,34.1
		"/>
	<path class="st6" d="M167,72.5h29.4c7.1,0,12.5,1.7,16.4,5.1c3.9,3.4,5.8,8,5.8,13.7c0,5.7-2,10.3-5.9,13.7
		c-3.9,3.4-9.4,5.1-16.3,5.1h-13.1v24.1H167V72.5z M194.2,98c6.1,0,9.2-2.2,9.2-6.5c0-2.2-0.7-3.9-2.2-5c-1.5-1.1-3.8-1.7-7-1.7
		h-10.9V98H194.2z"/>
	<path class="st6" d="M266.7,89.2V134h-15.4v-6.7c-1.3,2.1-3.1,3.7-5.6,4.9c-2.4,1.2-5.1,1.8-8,1.8c-3.8,0-7.1-0.9-10.1-2.8
		c-3-1.9-5.2-4.5-6.9-7.9c-1.6-3.4-2.5-7.4-2.5-11.9c0-4.6,0.8-8.6,2.5-12.1c1.7-3.5,4-6.3,6.9-8.2c2.9-2,6.3-2.9,10-2.9
		c2.9,0,5.5,0.6,7.9,1.9c2.4,1.2,4.3,2.9,5.6,5v-5.6H266.7z M249,119.4c1.5-1.9,2.3-4.7,2.3-8.2c0-3.6-0.8-6.4-2.3-8.4
		c-1.5-1.9-3.6-2.9-6.4-2.9c-2.7,0-4.9,1-6.4,3c-1.6,2-2.3,4.8-2.3,8.5c0,3.5,0.8,6.2,2.3,8.1c1.5,1.9,3.7,2.8,6.5,2.8
		C245.4,122.3,247.5,121.3,249,119.4"/>
	<path class="st6" d="M313.8,93.9c2.6,3.2,3.9,7.9,3.9,14.3V134h-15.7v-25.1c0-2.7-0.5-4.7-1.4-5.9c-0.9-1.2-2.4-1.8-4.3-1.8
		c-2.4,0-4.3,0.8-5.7,2.4c-1.4,1.6-2.2,3.7-2.2,6.3V134h-15.7v-30.9c0-4.7-0.2-9-0.7-12.7h14.7l0.8,6.5c1.7-2.5,3.8-4.4,6.2-5.7
		c2.5-1.3,5.3-2,8.4-2C307.3,89.2,311.2,90.8,313.8,93.9"/>
	<path class="st6" d="M332.6,131.3c-3.6-1.8-6.4-4.5-8.4-8c-2-3.5-3-7.5-3-12.2c0-4.7,1-8.8,3-12.2c2-3.5,4.8-6.1,8.4-8
		c3.6-1.8,7.9-2.8,12.8-2.8c4.9,0,9.1,0.9,12.7,2.8c3.6,1.9,6.4,4.5,8.4,8c2,3.4,2.9,7.5,2.9,12.2c0,4.7-1,8.7-2.9,12.2
		c-2,3.4-4.8,6.1-8.4,8c-3.6,1.9-7.9,2.8-12.7,2.8C340.6,134.1,336.3,133.2,332.6,131.3 M354,111.1c0-3.8-0.7-6.6-2.1-8.5
		c-1.4-1.8-3.5-2.7-6.4-2.7c-2.9,0-5.1,0.9-6.5,2.7c-1.4,1.8-2.2,4.6-2.2,8.5c0,3.9,0.7,6.7,2.2,8.5c1.4,1.8,3.6,2.7,6.5,2.7
		C351.2,122.4,354,118.6,354,111.1"/>
	<path class="st6" d="M412.5,91.1c3,2,5.3,4.7,6.9,8.2c1.7,3.5,2.5,7.6,2.5,12.1c0,4.5-0.8,8.5-2.5,11.9c-1.6,3.4-3.9,6.1-6.9,7.9
		c-2.9,1.9-6.3,2.8-10.1,2.8c-2.9,0-5.5-0.6-7.9-1.7c-2.4-1.1-4.2-2.7-5.5-4.7v24.5h-15.7V102c0-4.7-0.2-9-0.7-12.7h14.7l0.9,6.9
		c1.1-2.4,2.9-4.4,5.5-5.9c2.5-1.5,5.4-2.2,8.7-2.2C406.2,88.1,409.6,89.1,412.5,91.1 M404.1,119.6c1.4-1.8,2.2-4.6,2.2-8.2
		c0-3.6-0.7-6.5-2.2-8.5c-1.5-2-3.6-3-6.4-3c-2.8,0-5,1-6.5,2.9c-1.5,1.9-2.3,4.7-2.3,8.4c0,3.6,0.8,6.3,2.3,8.2
		c1.5,1.9,3.7,2.9,6.5,2.9C400.5,122.4,402.7,121.5,404.1,119.6"/>
</g>
<rect x="425.9" y="69.9" class="st6" width="15.7" height="63.8"/>
<g>
	<path class="st6" d="M496.5,90.4L476.3,136c-2.7,6-6,10.3-10,13.1c-4,2.7-9,4.5-14.9,5.2l-3.6-12c4-0.8,7.1-1.9,9.1-3.1
		c2-1.3,3.6-3,4.6-5.3l1.1-2.4l-18-41h16.3l9.9,25.4l10.2-25.4H496.5z"/>
</g>
<rect x="493.1" y="117.9" class="st6" width="16.4" height="16.1"/>
</svg>
