<svg width="33" height="33" viewBox="0 0 33 33" fill="none" xmlns="http://www.w3.org/2000/svg">
<path fill-rule="evenodd" clip-rule="evenodd" d="M16.5 29C23.4036 29 29 23.4036 29 16.5C29 9.59644 23.4036 4 16.5 4C9.59644 4 4 9.59644 4 16.5C4 23.4036 9.59644 29 16.5 29ZM16.5 33C25.6127 33 33 25.6127 33 16.5C33 7.3873 25.6127 0 16.5 0C7.3873 0 0 7.3873 0 16.5C0 25.6127 7.3873 33 16.5 33Z" fill="white"/>
<path fill-rule="evenodd" clip-rule="evenodd" d="M6.81543 18.2524L9.64386 15.424L13.7388 19.5189L23.3387 9.91905L26.1671 12.7475L13.7388 25.1758L6.81543 18.2524Z" fill="white"/>
</svg>
